<svg width="24" height="21" viewBox="0 0 24 21" fill="none" xmlns="http://www.w3.org/2000/svg">
<path d="M20.1208 16.8268C20.1208 17.1057 19.9292 17.3066 19.6542 17.3066C19.3708 17.3066 19.1875 17.0934 19.1875 16.8268C19.1875 16.5602 19.3708 16.3469 19.6542 16.3469C19.9292 16.3469 20.1208 16.5602 20.1208 16.8268ZM7.17083 16.3469C6.875 16.3469 6.70417 16.5602 6.70417 16.8268C6.70417 17.0934 6.875 17.3066 7.17083 17.3066C7.44167 17.3066 7.625 17.1057 7.625 16.8268C7.62083 16.5602 7.44167 16.3469 7.17083 16.3469ZM12.0667 16.3346C11.8417 16.3346 11.7042 16.4781 11.6708 16.6914H12.4667C12.4292 16.4576 12.2833 16.3346 12.0667 16.3346ZM16.5583 16.3469C16.275 16.3469 16.1042 16.5602 16.1042 16.8268C16.1042 17.0934 16.275 17.3066 16.5583 17.3066C16.8417 17.3066 17.025 17.1057 17.025 16.8268C17.025 16.5602 16.8417 16.3469 16.5583 16.3469ZM20.9708 17.4174C20.9708 17.4297 20.9833 17.4379 20.9833 17.4625C20.9833 17.4748 20.9708 17.483 20.9708 17.5076C20.9583 17.5199 20.9583 17.5281 20.95 17.5404C20.9375 17.5527 20.9292 17.5609 20.9042 17.5609C20.8917 17.5732 20.8833 17.5732 20.8583 17.5732C20.8458 17.5732 20.8375 17.5732 20.8125 17.5609C20.8 17.5609 20.7917 17.5486 20.7792 17.5404C20.7667 17.5281 20.7583 17.5199 20.7583 17.5076C20.7458 17.4871 20.7458 17.4748 20.7458 17.4625C20.7458 17.442 20.7458 17.4297 20.7583 17.4174C20.7583 17.3969 20.7708 17.3846 20.7792 17.3723C20.7917 17.36 20.8 17.36 20.8125 17.3518C20.8333 17.3395 20.8458 17.3395 20.8583 17.3395C20.8792 17.3395 20.8917 17.3395 20.9042 17.3518C20.925 17.3641 20.9375 17.3641 20.95 17.3723C20.9625 17.3805 20.9583 17.3969 20.9708 17.4174ZM20.8792 17.4748C20.9 17.4748 20.9 17.4625 20.9125 17.4625C20.925 17.4502 20.925 17.442 20.925 17.4297C20.925 17.4174 20.925 17.4092 20.9125 17.3969C20.9 17.3969 20.8917 17.3846 20.8667 17.3846H20.8V17.5281H20.8333V17.4707H20.8458L20.8917 17.5281H20.925L20.8792 17.4748ZM24 3.32031V17.7578C24 18.8447 23.1042 19.7266 22 19.7266H2C0.895833 19.7266 0 18.8447 0 17.7578V3.32031C0 2.2334 0.895833 1.35156 2 1.35156H22C23.1042 1.35156 24 2.2334 24 3.32031ZM2.66667 9.04609C2.66667 12.1838 5.25417 14.7268 8.4375 14.7268C9.57083 14.7268 10.6833 14.3904 11.625 13.7793C8.5875 11.3471 8.60833 6.75742 11.625 4.3252C10.6833 3.70996 9.57083 3.37773 8.4375 3.37773C5.25417 3.37363 2.66667 5.9207 2.66667 9.04609ZM12 13.5086C14.9375 11.2527 14.925 6.85586 12 4.5877C9.075 6.85586 9.0625 11.2568 12 13.5086ZM6.07083 16.6381C6.07083 16.2813 5.83333 16.0475 5.45833 16.0352C5.26667 16.0352 5.0625 16.0926 4.925 16.3018C4.825 16.1336 4.65417 16.0352 4.41667 16.0352C4.25833 16.0352 4.1 16.0926 3.975 16.2566V16.0762H3.63333V17.5814H3.975C3.975 16.8063 3.87083 16.3428 4.35 16.3428C4.775 16.3428 4.69167 16.7611 4.69167 17.5814H5.02083C5.02083 16.8309 4.91667 16.3428 5.39583 16.3428C5.82083 16.3428 5.7375 16.7529 5.7375 17.5814H6.07917V16.6381H6.07083ZM7.94167 16.0762H7.6125V16.2566C7.5 16.1213 7.34167 16.0352 7.125 16.0352C6.69583 16.0352 6.36667 16.3715 6.36667 16.8268C6.36667 17.2861 6.69583 17.6184 7.125 17.6184C7.34167 17.6184 7.5 17.5404 7.6125 17.3969V17.5855H7.94167V16.0762ZM9.62917 17.1262C9.62917 16.5109 8.675 16.7898 8.675 16.5027C8.675 16.2689 9.17083 16.3059 9.44583 16.4576L9.58333 16.191C9.19167 15.9408 8.325 15.9449 8.325 16.5273C8.325 17.1139 9.27917 16.8678 9.27917 17.1426C9.27917 17.401 8.71667 17.3805 8.41667 17.1754L8.27083 17.4338C8.7375 17.7455 9.62917 17.6799 9.62917 17.1262ZM11.1042 17.5076L11.0125 17.2287C10.8542 17.3148 10.5042 17.4092 10.5042 17.0605V16.3797H11.05V16.0762H10.5042V15.6168H10.1625V16.0762H9.84583V16.3756H10.1625V17.0605C10.1625 17.7824 10.8833 17.6512 11.1042 17.5076ZM11.6583 16.958H12.8042C12.8042 16.2936 12.4958 16.0311 12.0792 16.0311C11.6375 16.0311 11.3208 16.3551 11.3208 16.8227C11.3208 17.6635 12.2625 17.8029 12.7292 17.4051L12.5708 17.159C12.2458 17.4215 11.7542 17.3969 11.6583 16.958ZM14.1208 16.0762C13.9292 15.9941 13.6375 16.0023 13.4875 16.2566V16.0762H13.1458V17.5814H13.4875V16.7324C13.4875 16.2566 13.8833 16.3182 14.0208 16.3879L14.1208 16.0762ZM14.5625 16.8268C14.5625 16.3592 15.0458 16.2074 15.425 16.4822L15.5833 16.2156C15.1 15.8424 14.2208 16.0475 14.2208 16.8309C14.2208 17.643 15.1542 17.807 15.5833 17.4461L15.425 17.1795C15.0417 17.4461 14.5625 17.2861 14.5625 16.8268ZM17.3417 16.0762H17V16.2566C16.6542 15.8055 15.7542 16.0598 15.7542 16.8268C15.7542 17.6143 16.6875 17.8398 17 17.3969V17.5855H17.3417V16.0762ZM18.7458 16.0762C18.6458 16.027 18.2875 15.9572 18.1125 16.2566V16.0762H17.7833V17.5814H18.1125V16.7324C18.1125 16.2812 18.4875 16.31 18.6458 16.3879L18.7458 16.0762ZM20.425 15.465H20.0958V16.2566C19.7542 15.8096 18.85 16.0475 18.85 16.8268C18.85 17.6225 19.7875 17.8357 20.0958 17.3969V17.5855H20.425V15.465ZM20.7417 12.3848V12.5734H20.775V12.3848H20.8542V12.352H20.6625V12.3848H20.7417ZM21.0167 17.4625C21.0167 17.442 21.0167 17.4174 21.0042 17.3969C20.9917 17.3846 20.9833 17.3641 20.9708 17.3518C20.9583 17.3395 20.9375 17.3312 20.925 17.3189C20.9042 17.3189 20.8792 17.3066 20.8583 17.3066C20.8458 17.3066 20.825 17.3189 20.8 17.3189C20.7792 17.3312 20.7667 17.3395 20.7542 17.3518C20.7333 17.3641 20.7208 17.3846 20.7208 17.3969C20.7083 17.4174 20.7083 17.442 20.7083 17.4625C20.7083 17.4748 20.7083 17.4953 20.7208 17.5199C20.7208 17.5322 20.7333 17.5527 20.7542 17.565C20.7667 17.5773 20.775 17.5855 20.8 17.5979C20.8208 17.6102 20.8458 17.6102 20.8583 17.6102C20.8792 17.6102 20.9042 17.6102 20.925 17.5979C20.9375 17.5855 20.9583 17.5773 20.9708 17.565C20.9833 17.5527 20.9917 17.5322 21.0042 17.5199C21.0167 17.4953 21.0167 17.4748 21.0167 17.4625ZM21.15 12.3479H21.0917L21.025 12.4914L20.9583 12.3479H20.9V12.5693H20.9333V12.4012L21 12.5447H21.0458L21.1042 12.4012V12.5693H21.15V12.3479ZM21.3333 9.04609C21.3333 5.9207 18.7458 3.37363 15.5625 3.37363C14.4292 3.37363 13.3167 3.70996 12.375 4.32109C15.3792 6.75332 15.425 11.3553 12.375 13.7752C13.3167 14.3904 14.4375 14.7227 15.5625 14.7227C18.7458 14.7268 21.3333 12.1838 21.3333 9.04609Z" fill="black"/>
</svg>
